<?xml version="1.0" encoding="UTF-8"?>
<svg id="Layer_1" data-name="Layer 1" xmlns="http://www.w3.org/2000/svg" viewBox="0 0 2409.8545 1000.10001">
  <path d="M553.02049,499.14486c39.3301-.08339,78.73463,7.42469,113.27798,20.88896,0,129.90703-89.24502,179.46699-201.01802,179.471-.05.102-67.80198,139.70605,114.13003,300.54102-180.75901,0-315.14902-110.85596-315.14902-249.66602,0-39.954,10.51101-77.73101,29.21301-111.27397,46.272-82.99102,148.10198-139.96099,259.54602-139.96099ZM926.31145,399.06383c8.99404,0,16.28604,7.11101,16.28604,15.88201,0,8.77202-7.29199,15.88301-16.28604,15.88301-42.03496,0-76.179,32.93999-76.77002,73.79497,39.51807,13.49004,67.92803,50.83804,67.92803,94.8v100.18003h-100.50898c-55.50903,0-100.50903-44.852-100.50903-100.18003s45-100.17998,100.50903-100.17998h.198c3.423-55.88799,50.98403-100.18,109.15298-100.18ZM6.81165,336.18382c-21.13608-68.15798,7.43412-89.48599,102.49782-77.51899,46.033,6.41001,131.56801,33.23601,195.77501,62.15801,104.38899,46.80901,172.73601,98.96602,165.395,126.28501-4.35,16.18799-55.03003,39.952-105.41301,49.73101-102.84399,19.56499-201.385,5.08296-263.21699-37.83101-41.4831-28.496-81.381-80.92102-95.03782-122.82402ZM410.03645,43.63313c33.40903-63.0921,68.74102-58.0369,127.47202,17.4253,28.00298,36.9763,69.454,116.22941,94.33799,181.9334,40.60601,106.671,51.93198,191.72202,27.36099,205.86602-14.55996,8.38101-67.25498-10.53403-109.81797-39.129-86.602-58.649-146.00701-138.34001-159.28501-212.26401-9.11702-49.387-.13801-114.57679,19.93198-153.8317Z" fill="#ffc800"/>
  <g>
    <path d="M1277.61661,708.30811c-42.83154,0-76.02588-9.51465-99.58301-28.55469-23.55762-19.02881-35.33643-45.9209-35.33643-80.66602,0-37.12061,12.49268-65.42969,37.47803-84.94922,24.98486-19.5083,59.84131-29.26807,104.58008-29.26807h95.65723v61.3916h-69.95801c-31.88965,0-54.25342,4.40625-67.10303,13.20654-12.84912,8.81152-19.27393,21.3042-19.27393,37.47754,0,13.80908,5.58789,24.62842,16.77539,32.48096,11.17676,7.85205,26.77002,11.77832,46.75781,11.77832,18.08105,0,33.78564-4.0376,47.11475-12.13525,13.31787-8.08691,23.66895-18.79492,31.05322-32.12402,7.37256-13.31787,11.06445-28.30908,11.06445-44.97314h23.55762c0,48.54248-9.75977,86.73389-29.26855,114.57471-19.51953,27.84033-50.68359,41.76074-93.51562,41.76074ZM1380.41251,699.7417l-3.56934-67.10303v-116.35889c0-24.271-2.49854-44.61621-7.49512-61.03516-4.99707-16.41846-13.09521-29.02246-24.27148-37.83447-11.1875-8.80029-26.05566-13.20654-44.61621-13.20654-17.13281,0-32.12354,3.56934-44.97314,10.70801s-23.80273,18.32617-32.8374,33.55176l-69.9585-25.69922c7.60742-15.70508,17.72412-30.33887,30.33936-43.90234,12.604-13.56348,28.5542-24.38281,47.82861-32.48047,19.27393-8.08691,42.47461-12.13574,69.60107-12.13574,34.73389,0,63.76758,6.78174,87.09082,20.34521,23.31201,13.56299,40.56738,32.95996,51.75488,58.1792,11.17627,25.23047,16.77588,55.68115,16.77588,91.37402l-2.1416,195.59766h-73.52783Z" fill="#202020"/>
    <path d="M1518.892,699.7417V200.04004h79.95215v499.70166h-79.95215Z" fill="#202020"/>
    <path d="M1669.51114,699.7417V200.04004h79.95215v433.3125l-4.2832,66.38916h-75.66895ZM1862.25333,708.30811c-29.98242,0-55.80371-7.74121-77.45361-23.20068-21.66162-15.45947-38.19189-37.23193-49.61328-65.31787-11.42188-28.07471-17.13281-60.9126-17.13281-98.5127,0-38.06885,5.71094-71.0293,17.13281-98.86963,11.42139-27.84033,27.95166-49.49072,49.61328-64.96143,21.6499-15.45947,47.47119-23.2002,77.45361-23.2002,32.35791,0,60.55518,7.74072,84.59229,23.2002,24.02588,15.4707,42.83154,37.12109,56.39502,64.96143,13.56299,27.84033,20.34473,60.80078,20.34473,98.86963,0,37.6001-6.78174,70.43799-20.34473,98.5127-13.56348,28.08594-32.36914,49.8584-56.39502,65.31787-24.03711,15.45947-52.23438,23.20068-84.59229,23.20068ZM1842.26504,635.49415c19.02881,0,35.92725-4.87402,50.68408-14.63379,14.74561-9.74854,26.52441-23.20068,35.33594-40.33301,8.80078-17.13281,13.20654-36.87549,13.20654-59.25049,0-22.36377-4.17139-42.11768-12.49268-59.25049-8.33203-17.13232-19.87646-30.45068-34.62207-39.97607-14.75684-9.51416-31.88916-14.27734-51.39795-14.27734-18.0918,0-34.26514,4.76318-48.54248,14.27734-14.27686,9.52539-25.3418,22.84375-33.19434,39.97607-7.85254,17.13281-11.77881,36.88672-11.77881,59.25049,0,22.375,3.92627,42.11768,11.77881,59.25049,7.85254,17.13232,18.79443,30.58447,32.8374,40.33301,14.03174,9.75977,30.09375,14.63379,48.18555,14.63379Z" fill="#202020"/>
    <path d="M2180.63272,699.7417l-159.9043-356.92969h87.09082l124.21143,300.53467,25.69922,56.39502h-77.09717ZM2117.09952,851.08008c-11.42188,0-24.15967-2.1416-38.19141-6.4248-14.04297-4.2832-27.48389-9.75977-40.33301-16.41895l29.98193-64.96094c9.03467,4.2832,17.3667,7.72949,24.98486,10.35059,7.60742,2.61035,13.79785,3.92627,18.56055,3.92627,11.42188,0,21.05859-2.97803,28.91113-8.92285,7.85254-5.95654,14.15479-14.63428,18.91748-26.05615l42.11768-98.5127,120.64209-301.24854h87.09082l-165.61523,394.76416c-9.99414,22.84375-20.11084,42.83154-30.33887,59.96436-10.23975,17.13232-22.96631,30.33887-38.19189,39.61914-15.23633,9.28027-34.74463,13.92041-58.53613,13.92041Z" fill="#202020"/>
  </g>
</svg>
